<svg xmlns="http://www.w3.org/2000/svg" viewBox="0 0 400 352.4966">
    <path
        fill="#FFFFFF"
        d="M70.055 62.639c-.323.842-.246 227.417.077 227.926.224.352 26.646.423 130.947.353l130.667-.089v-76.543H280.6l-.177 16.755-.176 16.754-79.277.089-79.277.089v-142.86l79.277.089 79.277.089.092 16.845.091 16.846 25.658-.091 25.658-.09.09-38.36.09-38.36H201.098c-118.973 0-130.848.051-131.043.558"
    />
    <path
        fill="#991636"
        d="M0 176.367v176.367h400V0H0v176.367m331.836-75.926-.09 38.36-25.658.09-25.658.091-.091-16.846-.092-16.845-79.277-.089-79.277-.089v142.86l79.277-.089 79.277-.089.176-16.754.177-16.755h51.146v76.543l-130.667.089c-104.301.07-130.723-.001-130.947-.353-.323-.509-.4-227.084-.077-227.926.195-.507 12.07-.558 131.043-.558h130.828l-.09 38.36"
    />
</svg>
